<svg width="512" height="512" viewBox="0 0 512 512" fill="none" xmlns="http://www.w3.org/2000/svg">
  <defs>
    <linearGradient id="bg" x1="0" y1="0" x2="512" y2="512">
      <stop offset="0%" stop-color="#1b0a2b"/>
      <stop offset="50%" stop-color="#2d1158"/>
      <stop offset="100%" stop-color="#090b1a"/>
    </linearGradient>
    <linearGradient id="gold" x1="0" y1="0" x2="1" y2="1">
      <stop offset="0%" stop-color="#fef3c7"/>
      <stop offset="35%" stop-color="#fbbf24"/>
      <stop offset="100%" stop-color="#d97706"/>
    </linearGradient>
    <radialGradient id="light" cx="0" cy="0" r="1" gradientUnits="userSpaceOnUse" gradientTransform="translate(256 175) rotate(90) scale(220)">
      <stop offset="0" stop-color="#fff9c4" stop-opacity="1"/>
      <stop offset="0.45" stop-color="#f5d0fe" stop-opacity="0.8"/>
      <stop offset="1" stop-color="#1a0e31" stop-opacity="0"/>
    </radialGradient>
  </defs>

  <rect width="512" height="512" rx="36" fill="url(#bg)"/>
  <circle cx="256" cy="190" r="180" fill="url(#light)"/>
  <circle cx="256" cy="230" r="150" stroke="#d8b4fe" stroke-width="3" stroke-dasharray="6 10" opacity="0.8"/>
  <circle cx="256" cy="230" r="110" stroke="#fef3c7" stroke-width="2" stroke-dasharray="4 8" opacity="0.8"/>

  <g opacity="0.95">
    <path d="M256 120V360" stroke="#fef3c7" stroke-width="8" stroke-linecap="round"/>
    <path d="M185 195C172 144 151 136 152 117C180 111 209 156 185 195Z" fill="#fef3c7" opacity="0.35"/>
    <path d="M327 195C340 144 361 136 360 117C332 111 303 156 327 195Z" fill="#fef3c7" opacity="0.35"/>
  </g>

  <g>
    <rect x="169" y="172" width="174" height="35" rx="12" fill="#6d28d9" stroke="url(#gold)" stroke-width="4"/>
    <rect x="191" y="207" width="130" height="16" rx="8" fill="#fbbf24" opacity="0.8"/>
    <rect x="184" y="224" width="144" height="138" rx="10" fill="#a78bfa" stroke="url(#gold)" stroke-width="4"/>
    <path d="M221 321H291V344C291 352.837 284.837 359 276 359H236C227.163 359 221 352.837 221 344V321Z" fill="#312e81"/>
    <path d="M200 256H312V276H200V256Z" fill="url(#gold)"/>
    <path d="M176 273H336V284H176V273Z" fill="#f5d0fe" opacity="0.55"/>
  </g>

  <path d="M148 390C170 330 214 312 256 312C298 312 342 330 364 390" stroke="#d8b4fe" stroke-width="4" stroke-linecap="round" opacity="0.9"/>
  <path d="M150 418C186 378 218 364 256 364C294 364 326 378 362 418" stroke="#f1c40f" stroke-width="3" stroke-linecap="round" opacity="0.85"/>

  <text x="256" y="470" text-anchor="middle" font-family="Georgia, serif" font-size="46" font-weight="700" fill="#fef3c7">FUERZA</text>
</svg>
